<svg class="icon icon-accordion" width="51" height="50" viewBox="0 0 51 50" fill="none" xmlns="http://www.w3.org/2000/svg">
<path d="M27.7166 17.3846V23.2263C27.7163 23.7895 27.8878 24.3394 28.2081 24.8027L32.1612 30.5128C33.1831 31.9868 32.128 34 30.3356 34H19.559C17.7666 34 16.7115 31.9868 17.732 30.5128L21.6851 24.8027C22.006 24.3396 22.1779 23.7897 22.1781 23.2263V17.3846H21.4857C21.3021 17.3846 21.126 17.3117 20.9962 17.1818C20.8664 17.052 20.7934 16.8759 20.7934 16.6923C20.7934 16.5087 20.8664 16.3326 20.9962 16.2028C21.126 16.0729 21.3021 16 21.4857 16H28.4089C28.5925 16 28.7686 16.0729 28.8984 16.2028C29.0283 16.3326 29.1012 16.5087 29.1012 16.6923C29.1012 16.8759 29.0283 17.052 28.8984 17.1818C28.7686 17.3117 28.5925 17.3846 28.4089 17.3846H27.7166ZM23.5627 23.2263C23.5626 24.0712 23.3049 24.8959 22.824 25.5905L22.2743 26.3846H27.6196L27.0699 25.5905C26.5893 24.8958 26.3318 24.0711 26.3319 23.2263V17.3846H23.5627V23.2263ZM21.3279 27.7512L18.8702 31.3007C18.7831 31.4264 18.7321 31.5736 18.7227 31.7263C18.7133 31.879 18.7459 32.0313 18.8169 32.1668C18.888 32.3022 18.9948 32.4157 19.1257 32.4948C19.2567 32.5738 19.4068 32.6156 19.5597 32.6154H30.3356C30.4884 32.6153 30.6384 32.5734 30.7691 32.4942C30.8998 32.415 31.0064 32.3016 31.0773 32.1662C31.1482 32.0308 31.1807 31.8785 31.1712 31.726C31.1618 31.5734 31.1108 31.4263 31.0238 31.3007L28.566 27.7512C28.5145 27.7632 28.4618 27.7693 28.4089 27.7692H21.4857C21.4317 27.7692 21.3784 27.763 21.3279 27.7512Z" fill="#4C4C4C"></path>
<circle cx="25.333" cy="25" r="17.1875" stroke="#ff512b" stroke-width="3.125"></circle>
<rect x="36.3838" y="38.2588" width="34.375" height="3.125" transform="rotate(-135 36.3838 38.2588)" fill="#ff512b"></rect>
</svg>