<svg class="icon icon-accordion" width="51" height="50" viewBox="0 0 51 50" fill="none" xmlns="http://www.w3.org/2000/svg">
<path d="M27.9185 18.7834C27.7225 18.4244 27.3439 18.2133 26.9348 18.2133H24.1087C23.6781 18.2133 23.283 18.447 23.0908 18.8322C22.4249 20.1667 20.939 23.393 20.8055 25.8559C20.8054 25.8583 20.8033 25.8603 20.8007 25.8603C20.7981 25.8603 20.7959 25.8625 20.7959 25.8652V33.5074C20.7959 34.8069 21.8493 35.8603 23.1488 35.8603H27.8546C29.1541 35.8603 30.2075 34.8069 30.2075 33.5074V25.864C30.2075 25.862 30.2058 25.8603 30.2038 25.8603C30.202 25.8603 30.2003 25.8588 30.2002 25.8569C30.0837 23.0444 28.5914 20.0158 27.9185 18.7834V18.7834Z" stroke="#4C4C4C" stroke-width="1.17646"></path>
<path d="M28.4431 15.8604H22.5609C22.236 15.8604 21.9727 16.1237 21.9727 16.4486V17.6251C21.9727 17.9499 22.236 18.2133 22.5609 18.2133H28.4431C28.768 18.2133 29.0314 17.9499 29.0314 17.6251V16.4486C29.0314 16.1237 28.768 15.8604 28.4431 15.8604Z" stroke="#4C4C4C" stroke-width="1.17646"></path>
<path d="M23.1484 26.4486V32.9192" stroke="#4C4C4C" stroke-width="1.17646" stroke-linecap="round"></path>
<circle cx="25.333" cy="25" r="17.1875" stroke="#ff6700" stroke-width="2.125"></circle>
<rect x="36.3838" y="38.2588" width="34.375" height="2.125" transform="rotate(-135 36.3838 38.2588)" fill="#ff6700"></rect>
</svg>