<svg xmlns="http://www.w3.org/2000/svg" fill="none" viewBox="0 0 56 56" height="56" width="56">
<rect fill="#ff512b" rx="28" height="56" width="56"></rect>
<path fill="#FAF9F5" d="M33.3679 15.1442L32.3926 14.9553L32.1973 15.9295L28.3033 35.3585L28.2385 35.6819L28.3789 35.9805L30.2269 39.9105L30.7598 41.0439L31.7471 40.2732L35.5571 37.2992L35.8495 37.0711L35.9223 36.7074L38.7327 22.6811L39.8782 22.9942L38.0829 30.2436L40.0242 30.7244L42.0542 22.5274L42.2889 21.5798L41.3472 21.3224L39.1266 20.7154L39.7843 17.4324L39.9808 16.4518L39.0002 16.2554L35.8942 15.6334L35.8942 15.6334L35.8879 15.6322L33.3679 15.1442ZM30.3292 35.428L33.9631 17.2966L35.5046 17.5951L37.6268 18.0201L34.0342 35.9509L31.5038 37.926L30.3292 35.428ZM22.7047 22.4746H28.6137V20.4746H22.7047V22.4746ZM22.7047 28.8027H27.4207V26.8027H22.7047V28.8027ZM26.2857 35.1299H22.7047V33.1299H26.2857V35.1299ZM17.1759 23.5729L20.8099 19.8499L19.3787 18.4529L16.3856 21.5193L14.9807 20.3664L13.7119 21.9124L15.8259 23.6474L16.5351 24.2294L17.1759 23.5729ZM20.8099 26.3533L17.1759 30.0763L16.5351 30.7328L15.8259 30.1508L13.7119 28.4158L14.9807 26.8698L16.3856 28.0227L19.3787 24.9563L20.8099 26.3533ZM17.1759 36.5792L20.8099 32.8562L19.3787 31.4592L16.3856 34.5257L14.9807 33.3727L13.7119 34.9187L15.8259 36.6537L16.5351 37.2357L17.1759 36.5792Z" clip-rule="evenodd" fill-rule="evenodd"></path>
</svg>
