<svg class="icon icon-accordion" width="51" height="50" viewBox="0 0 51 50" fill="none" xmlns="http://www.w3.org/2000/svg">
<path d="M31.8795 21.6472C31.3815 21.149 30.7989 20.7595 30.1484 20.4892C29.4996 20.2203 28.8123 20.0841 28.1046 20.0841C27.3975 20.0841 26.7098 20.2202 26.0599 20.4892C25.9779 20.5234 25.8964 20.5597 25.8162 20.5978V18.2196C25.8162 17.9719 25.8635 17.7319 25.9576 17.5058C26.0516 17.2792 26.1876 17.0756 26.3625 16.901C26.4059 16.8575 26.4513 16.8163 26.4986 16.7775C26.6403 16.661 26.7973 16.5668 26.9671 16.4963C27.0802 16.4495 27.1978 16.4144 27.3173 16.3908C27.6168 16.3324 27.9295 16.3469 28.2217 16.4347C28.2802 16.4524 28.3378 16.4727 28.3943 16.4961C28.6216 16.5903 28.825 16.7266 28.999 16.901C29.0348 16.9365 29.0685 16.9734 29.1011 17.0114C29.1111 17.0229 29.1199 17.0355 29.1295 17.0471C29.1512 17.0739 29.1733 17.1007 29.1933 17.1287C29.204 17.1431 29.2131 17.1583 29.2233 17.1731C29.2409 17.1994 29.259 17.2255 29.2758 17.2526C29.2858 17.269 29.2945 17.286 29.304 17.3026C29.317 17.3258 29.3299 17.3487 29.3423 17.3724C29.254 17.5455 29.1394 17.7033 28.9997 17.8429C28.8255 18.0175 28.6219 18.1536 28.3955 18.2475C28.0497 18.3908 27.8853 18.7874 28.0287 19.1333C28.1719 19.4791 28.5678 19.6437 28.9148 19.5003C29.3068 19.3379 29.6586 19.1027 29.9589 18.8018C30.2569 18.504 30.4896 18.1565 30.6515 17.7697C30.6532 17.7662 30.655 17.7629 30.6562 17.7596C30.6567 17.7587 30.6571 17.7579 30.6574 17.757C30.6637 17.7424 30.6664 17.7267 30.6713 17.7118C30.6799 17.6855 30.6896 17.6597 30.6955 17.6321C30.7044 17.5884 30.7091 17.5438 30.7091 17.499L30.7096 17.2475C30.7098 17.1578 30.6921 17.0692 30.6577 16.9863C30.4952 16.5942 30.2598 16.2429 29.9589 15.942C29.6587 15.6415 29.3072 15.4066 28.9148 15.2435C28.1319 14.9189 27.2327 14.9187 26.4484 15.2435C26.0566 15.4062 25.7054 15.6413 25.4047 15.942C25.1036 16.2432 24.8684 16.5948 24.7062 16.9863C24.5428 17.3778 24.4604 17.7926 24.4604 18.2196V20.5982C24.3799 20.5599 24.2985 20.5236 24.2162 20.4893C23.5675 20.2203 22.8798 20.0841 22.1722 20.0841C21.465 20.0841 20.7774 20.2202 20.1277 20.4892C19.4782 20.759 18.8958 21.1487 18.397 21.6474C17.8973 22.1474 17.5074 22.7301 17.2388 23.379C16.9696 24.0273 16.833 24.7151 16.833 25.4233C16.833 29.2728 18.5934 35 23.4434 35C23.7575 35 24.0633 34.9395 24.3516 34.8197C24.6409 34.7002 24.8997 34.5266 25.1213 34.3052C25.1269 34.2996 25.1326 34.2939 25.1386 34.2876C25.1442 34.2934 25.1494 34.299 25.1555 34.3049C25.3774 34.5269 25.6362 34.7002 25.9252 34.8197C26.2137 34.9395 26.5191 35 26.8334 35C31.6832 35 33.4438 29.2728 33.4438 25.4233C33.4438 24.7165 33.3073 24.0288 33.0385 23.379C32.7692 22.7293 32.379 22.1465 31.8795 21.6472ZM26.8334 33.644C26.6984 33.644 26.5676 33.6182 26.4439 33.5669C26.3201 33.5155 26.2093 33.4415 26.114 33.3457C26.0186 33.2506 25.9445 33.1397 25.8933 33.0162C25.6806 32.5033 25.2945 32.4478 25.1384 32.4478C24.9821 32.4478 24.5958 32.5031 24.3834 33.016C24.3321 33.1397 24.2578 33.2508 24.1623 33.3462C24.0672 33.4415 23.9563 33.5155 23.8326 33.5669C23.7092 33.6182 23.5783 33.644 23.4434 33.644C19.5884 33.644 18.189 28.7278 18.189 25.4233C18.189 24.8946 18.2907 24.3817 18.4914 23.8983C18.6919 23.4142 18.9826 22.9795 19.3556 22.6062C19.7282 22.2338 20.1631 21.9428 20.647 21.7418C21.6145 21.3412 22.731 21.3416 23.6963 21.7418C24.0587 21.8923 24.3963 22.0952 24.7006 22.3455C24.9513 22.5572 25.3175 22.5591 25.5699 22.3501C25.875 22.0979 26.215 21.8931 26.5793 21.7418C27.5468 21.3412 28.6633 21.3416 29.6287 21.7418C30.114 21.9433 30.5488 22.2342 30.9205 22.6062C31.2935 22.9793 31.5847 23.4142 31.7856 23.8983C31.9861 24.3821 32.0878 24.8953 32.0878 25.4233C32.0878 28.7278 30.6884 33.644 26.8334 33.644Z" fill="#4C4C4C"></path>
<circle cx="25.333" cy="25" r="17.1875" stroke="#EE8B00" stroke-width="3.125"></circle>
</svg>