

<svg class="icon icon-accordion icon-vegan" width="50" height="50" viewBox="0 0 51 50" fill="none" xmlns="http://www.w3.org/2000/svg">
<path d="M36.1723 20.3244C36.0566 20.2841 35.9285 20.3048 35.8314 20.3797C35.8122 20.3964 33.8178 21.9277 31.4994 22.3933C29.5963 22.7773 28.293 23.5452 27.5179 24.7406C26.5891 26.1806 26.4235 28.211 27.0115 30.954C26.0755 31.8227 25.2522 32.6939 24.6354 33.3659C24.8466 31.983 24.6927 30.5691 24.1891 29.2643C25.6292 26.4106 26.0467 24.1262 25.4372 22.2876C24.9331 20.7683 23.7331 19.5636 21.7701 18.6035C19.3555 17.4228 17.601 15.1644 17.5818 15.1403C17.5074 15.0437 17.3891 14.9913 17.2674 15.0012C17.1462 15.0112 17.0378 15.0815 16.9794 15.1884C13.7658 21.1044 14.4858 24.5604 15.6571 26.4178C16.9746 28.5057 19.5522 29.6337 22.9672 29.6337C23.1592 29.6337 23.3559 29.6337 23.5528 29.6193C24.0443 30.9506 24.1344 32.3967 23.8121 33.7787C23.7303 34.0936 23.6218 34.4011 23.488 34.6977C23.4185 34.862 23.4785 35.0523 23.6298 35.1468C23.781 35.2412 23.9784 35.2115 24.0952 35.0769C25.1641 33.8158 26.301 32.614 27.5008 31.4769C28.5612 31.8118 29.665 31.9896 30.7769 32.0049C32.4954 32.0049 33.9473 31.4985 35.0152 30.4977C36.436 29.1633 37.8353 26.3602 36.3952 20.5643C36.3641 20.4528 36.2809 20.3634 36.172 20.3242L36.1723 20.3244ZM16.2668 26.0339C14.8125 23.7251 15.2037 20.1779 17.3637 16.0044C18.0141 16.7507 19.5236 18.3036 21.4557 19.2517C23.2389 20.1206 24.3166 21.1885 24.7557 22.5134C25.2837 24.1021 24.9333 26.1134 23.6925 28.6526C23.3973 28.3575 22.9388 27.8774 22.4061 27.2462C21.4497 26.1157 20.6057 24.8948 19.886 23.6007C19.5407 22.973 19.2346 22.3246 18.9693 21.6591C18.9349 21.57 18.8665 21.4982 18.7789 21.4599C18.6915 21.4215 18.5924 21.4199 18.5037 21.455C18.3187 21.5285 18.2275 21.7374 18.2996 21.9231C19.5955 25.2231 21.8492 27.7958 22.9363 28.9144C19.7924 28.9095 17.4356 27.8991 16.2669 26.0343L16.2668 26.0339ZM34.5235 29.9723C33.1315 31.2755 30.95 31.6043 28.3195 30.9562C28.5283 30.8266 28.7659 30.6755 29.0396 30.493V30.4931C29.2045 30.3818 29.248 30.1576 29.1367 29.9927C29.0253 29.8277 28.8014 29.7841 28.6363 29.8955C28.2403 30.1643 27.9162 30.3754 27.6594 30.5147C27.1795 28.1147 27.333 26.3435 28.125 25.1241C28.7898 24.0994 29.9394 23.4442 31.6435 23.0938C33.14 22.7508 34.5583 22.1286 35.8242 21.2601C36.717 25.2633 36.2612 28.3427 34.5234 29.9721L34.5235 29.9723ZM35.114 23.7589C34.9154 24.2032 34.6903 24.6353 34.4397 25.0525C34.3742 25.161 34.2567 25.2275 34.13 25.2276C34.0647 25.2281 34.0005 25.2097 33.9451 25.1749C33.7754 25.0731 33.7196 24.8533 33.8204 24.6829C34.0575 24.2913 34.2691 23.8848 34.4541 23.4661C34.4929 23.3786 34.5649 23.3101 34.6541 23.2756C34.7435 23.2411 34.8428 23.2436 34.9303 23.2825C35.1126 23.3633 35.1948 23.5766 35.114 23.7589L35.114 23.7589ZM33.6451 26.2237C32.5861 27.6018 31.3379 28.8234 29.9371 29.8525C29.7781 29.9717 29.5524 29.9396 29.4332 29.7805C29.3139 29.6215 29.3462 29.3958 29.5052 29.2764C30.851 28.2874 32.0515 27.1143 33.0716 25.7916C33.1258 25.7076 33.2125 25.6498 33.311 25.6323C33.4096 25.6147 33.5109 25.639 33.5907 25.6992C33.6707 25.7593 33.722 25.8501 33.7322 25.9495C33.7425 26.0491 33.7111 26.1484 33.6451 26.2237L33.6451 26.2237ZM18.1557 20.4157C18.1262 20.4191 18.0964 20.4191 18.0668 20.4157C17.9083 20.413 17.7695 20.3082 17.7236 20.1564C17.6277 19.7772 17.5483 19.3955 17.4836 19.0212L17.4837 19.0214C17.4519 18.8225 17.5872 18.6355 17.7861 18.6037C17.9849 18.5719 18.1718 18.7073 18.2038 18.906C18.2613 19.2588 18.3382 19.6261 18.4294 19.9765H18.4293C18.4522 20.071 18.4361 20.171 18.3847 20.2535C18.3332 20.3362 18.2506 20.3946 18.1557 20.4157L18.1557 20.4157Z" fill="#4C4C4C" stroke="#4C4C4C" stroke-width="0.5"></path>
<circle cx="25.666" cy="25" r="17.1875" stroke="#ff512b" stroke-width="3.125"></circle>
</svg>