<svg xmlns="http://www.w3.org/2000/svg" fill="none" viewBox="0 0 56 56" height="56" width="56">
<rect fill="#232323" rx="28" height="56" width="56"></rect>
<path stroke-width="2" stroke="#FAF9F5" d="M40 28C40 31.2705 38.6916 34.2355 36.5697 36.4L40 40H28C21.3726 40 16 34.6274 16 28C16 21.3726 21.3726 16 28 16C34.6274 16 40 21.3726 40 28Z"></path>
<path fill="#FAF9F5" d="M24 29C24.5523 29 25 28.5523 25 28C25 27.4477 24.5523 27 24 27C23.4477 27 23 27.4477 23 28C23 28.5523 23.4477 29 24 29Z"></path>
<path fill="#FAF9F5" d="M28 29C28.5523 29 29 28.5523 29 28C29 27.4477 28.5523 27 28 27C27.4477 27 27 27.4477 27 28C27 28.5523 27.4477 29 28 29Z"></path>
<path fill="#FAF9F5" d="M32 29C32.5523 29 33 28.5523 33 28C33 27.4477 32.5523 27 32 27C31.4477 27 31 27.4477 31 28C31 28.5523 31.4477 29 32 29Z"></path>
</svg>
