<svg class="icon icon-accordion icon-gluten_free" width="50" height="50" viewBox="0 0 50 50" fill="none" xmlns="http://www.w3.org/2000/svg">
<path d="M17.668 24.6936C19.9244 26.386 20.3817 29.5871 18.6893 31.8435C18.4571 32.1532 18.1905 32.4352 17.895 32.6842L17.668 32.8648C15.4116 31.1724 14.9544 27.9713 16.6468 25.7149C16.879 25.4052 17.1455 25.1232 17.4411 24.8742L17.668 24.6936ZM21.7535 20.6081C24.0099 22.3004 24.4671 25.5015 22.7748 27.7579C22.5425 28.0676 22.276 28.3496 21.9805 28.5987L21.7535 28.7792C19.4971 27.0868 19.0398 23.8857 20.7322 21.6293C20.9645 21.3197 21.231 21.0377 21.5265 20.7886L21.7535 20.6081ZM25.8389 16.5225C28.0953 18.2148 28.5526 21.4159 26.8602 23.6723C26.6279 23.982 26.3614 24.264 26.0659 24.5131L25.8389 24.6936C23.5825 23.0013 23.1253 19.8002 24.8176 17.5438C25.0499 17.2341 25.3164 16.9521 25.6119 16.703L25.8389 16.5225ZM34.0098 24.6936C32.3176 26.95 29.1167 27.4073 26.8604 25.7151C26.5506 25.4828 26.2686 25.2162 26.0195 24.9207L25.8389 24.6936C27.5311 22.4373 30.732 21.98 32.9883 23.6722C33.2981 23.9045 33.5801 24.171 33.8292 24.4666L34.0098 24.6936ZM29.9244 28.7792C28.2322 31.0355 25.0313 31.4928 22.7749 29.8007C22.4652 29.5684 22.1831 29.3018 21.934 29.0062L21.7535 28.7792C23.4457 26.5229 26.6466 26.0656 28.9029 27.7577C29.2126 27.99 29.4947 28.2566 29.7438 28.5522L29.9244 28.7792ZM25.8389 32.8648C24.1467 35.1211 20.9458 35.5784 18.6895 33.8862C18.3798 33.6539 18.0977 33.3874 17.8486 33.0918L17.668 32.8648C19.3602 30.6085 22.5611 30.1511 24.8175 31.8433C25.1272 32.0756 25.4092 32.3422 25.6584 32.6377L25.8389 32.8648ZM34.8559 15.6763C35.2548 18.4686 33.3147 21.0554 30.5227 21.4542C30.1394 21.509 29.7515 21.5199 29.3664 21.4871L29.0782 21.454C28.6793 18.6619 30.6194 16.0752 33.4115 15.6763C33.8905 15.6079 34.3769 15.6079 34.8559 15.6763V15.6763Z" stroke="#4B4F54" stroke-width="1.07127" stroke-linecap="round"></path>
<circle cx="25" cy="25" r="17.1875" stroke="#ff512b" stroke-width="2.125"></circle>
<rect x="36.0508" y="38.2588" width="34.375" height="2.125" transform="rotate(-135 36.0508 38.2588)" fill="#ff512b"></rect>
</svg>