
<svg width="51" height="50" viewBox="0 0 51 50" fill="none" xmlns="http://www.w3.org/2000/svg">
<path d="M34.666 29.5C34.666 29.88 34.456 30.21 34.136 30.38L26.236 34.82C26.076 34.94 25.876 35 25.666 35C25.456 35 25.256 34.94 25.096 34.82L17.196 30.38C17.0357 30.2958 16.9015 30.1692 16.8081 30.014C16.7147 29.8589 16.6655 29.6811 16.666 29.5V20.5C16.666 20.12 16.876 19.79 17.196 19.62L25.096 15.18C25.256 15.06 25.456 15 25.666 15C25.876 15 26.076 15.06 26.236 15.18L34.136 19.62C34.456 19.79 34.666 20.12 34.666 20.5V29.5ZM25.666 17.15L19.706 20.5L25.666 23.85L31.626 20.5L25.666 17.15ZM18.666 28.91L24.666 32.29V25.58L18.666 22.21V28.91ZM32.666 28.91V22.21L26.666 25.58V32.29L32.666 28.91Z" fill="#4C4C4C" stroke="white" stroke-width="0.8"></path>
<circle cx="25.666" cy="25" r="17.1875" stroke="#ff512b" stroke-width="3.125"></circle>
<rect x="36.7168" y="38.2588" width="34.375" height="3.125" transform="rotate(-135 36.7168 38.2588)" fill="#ff512b"></rect>
</svg>