<svg xmlns="http://www.w3.org/2000/svg" fill="none" viewBox="0 0 56 56" height="56" width="56">
<rect fill="#ff512b" rx="28" height="56" width="56"></rect>
<path fill="#FAF9F5" d="M20.2504 25.1656C19.9928 24.9013 19.5878 24.8675 19.2927 25.0677C19.4175 21.9387 20.4045 19.1461 21.9067 17.1097C23.5162 14.9279 25.6789 13.6543 27.9997 13.6543C30.3205 13.6543 32.4833 14.9279 34.0928 17.1097C35.605 19.1597 36.5951 21.9761 36.7091 25.1307C36.4176 24.8722 35.9716 24.8792 35.6883 25.1556L28.7491 31.9268V26.318C28.9043 26.2846 29.0503 26.2018 29.1613 26.0717L33.7493 20.6959C34.0182 20.3808 33.9808 19.9074 33.6657 19.6385C33.3507 19.3696 32.8773 19.407 32.6084 19.7221L28.7491 24.2441V14.9277V14.1777H27.2491V14.9277V24.4168L23.2424 19.7221C22.9735 19.407 22.5001 19.3696 22.185 19.6385C21.87 19.9074 21.8325 20.3808 22.1014 20.6959L26.6894 26.0717C26.8352 26.2425 27.041 26.3317 27.2491 26.3348V32.3499L20.2504 25.1656ZM28.7727 33.9995L36.7125 26.252C36.6165 29.4479 35.6213 32.3032 34.0928 34.3753C32.6579 36.3204 30.7833 37.5437 28.7491 37.7862V34.5968C28.8394 34.4096 28.8475 34.1923 28.7727 33.9995ZM19.2894 26.3288L27.2491 34.4996V37.7861C25.2153 37.5431 23.3412 36.32 21.9067 34.3753C20.3904 32.3198 19.399 29.4937 19.2894 26.3288ZM27.2491 39.295C24.6487 39.0461 22.3597 37.5162 20.6996 35.2657C18.8813 32.8008 17.7793 29.4314 17.7793 25.7425C17.7793 22.0536 18.8813 18.6842 20.6996 16.2193C22.5177 13.7546 25.0901 12.1543 27.9997 12.1543C30.9093 12.1543 33.4818 13.7546 35.2999 16.2193C37.1182 18.6842 38.2202 22.0536 38.2202 25.7425C38.2202 29.4314 37.1182 32.8008 35.2999 35.2657C33.6395 37.5166 31.35 39.0466 28.7491 39.2951V43.0961V43.8461H27.2491V43.0961V39.295Z" clip-rule="evenodd" fill-rule="evenodd"></path>
</svg>
