<svg class="icon icon-accordion" width="50" height="50" viewBox="0 0 50 50" fill="none" xmlns="http://www.w3.org/2000/svg">
<path d="M24.9225 30.0162L24.4542 29.2566L24.1846 28.833C23.3303 27.526 22.8727 27.2098 21.3448 26.876L20.8534 26.7747L19.9765 26.6071C19.2819 26.4186 18.6426 26.0663 18.1123 25.5798C17.5819 25.0933 17.1759 24.4868 16.9283 23.811C16.6807 23.1353 16.5987 22.41 16.6891 21.696C16.7796 20.9821 17.0399 20.3002 17.4482 19.7075C17.8565 19.1149 18.401 18.6287 19.0359 18.2899C19.6708 17.951 20.3777 17.7693 21.0973 17.76C21.817 17.7506 22.5283 17.9139 23.1718 18.2362C23.8153 18.5585 24.3722 19.0303 24.7958 19.6121L24.7992 19.6072L25.4058 20.5858L25.6625 20.9787C26.4397 22.1295 26.9257 22.4311 28.3769 22.7474L28.8683 22.8487L29.7452 23.0163C30.4398 23.2048 31.0791 23.5571 31.6094 24.0436C32.1398 24.5301 32.5458 25.1366 32.7934 25.8124C33.041 26.4881 33.123 27.2134 33.0326 27.9273C32.9421 28.6413 32.6818 29.3232 32.2735 29.9159C31.8652 30.5085 31.3207 30.9946 30.6858 31.3335C30.0509 31.6724 29.344 31.8541 28.6244 31.8634C27.9048 31.8728 27.1934 31.7095 26.5499 31.3872C25.9064 31.0649 25.3495 30.5931 24.9259 30.0113" stroke="#4C4C4C" stroke-width="1.5" stroke-linecap="round" stroke-linejoin="round"></path>
<circle cx="25" cy="25" r="17.1875" stroke="#ff512b" stroke-width="3.125"></circle>
<rect x="36.0508" y="38.2588" width="34.375" height="3.125" transform="rotate(-135 36.0508 38.2588)" fill="#ff512b"></rect>
</svg>